# xmcd CD database file
#
# Track frame offsets:
#	150
#	11855
#	27810
#	45900
#	63240
#	79290
#	97750
#	115997
#	136615
#	156077
#
# Disc length: 2395 seconds
#
# Revision: 0
# Processed by: cddbd v1.5PL3 Copyright (c) Steve Scherf et al.
# Submitted via: CDex 1.50beta10
#
DISCID=6d09590a
DTITLE=Steve Fister Band - Between a Rock and a Blues Place
DYEAR=2004
DGENRE=Blues
TTITLE0=Foolin' Me
TTITLE1=All Said And Done
TTITLE2=Change The Game
TTITLE3=Funny 'Bout The Money
TTITLE4=Baby's Got A Problem
TTITLE5=Old Lady Trouble
TTITLE6=New Beginnings
TTITLE7=One Way Ticket
TTITLE8=Scares Me Half To Death
TTITLE9=White Light
EXTD=YEAR: 2004
EXTT0=
EXTT1=
EXTT2=
EXTT3=
EXTT4=
EXTT5=
EXTT6=
EXTT7=
EXTT8=
EXTT9=
PLAYORDER=
